<svg width="358" height="358" viewBox="0 0 358 358" fill="none" xmlns="http://www.w3.org/2000/svg">
<rect width="358" height="358" fill="#C7C7C7"/>
<g opacity="0.24">
<path d="M179 79C188.889 79 198.556 81.9324 206.779 87.4265C215.001 92.9206 221.41 100.73 225.194 109.866C228.978 119.002 229.969 129.055 228.039 138.755C226.11 148.454 221.348 157.363 214.355 164.355C207.363 171.348 198.454 176.11 188.755 178.039C179.055 179.969 169.002 178.978 159.866 175.194C150.73 171.41 142.921 165.001 137.427 156.779C131.932 148.556 129 138.889 129 129L129.05 126.83C129.609 113.958 135.116 101.798 144.422 92.8866C153.728 83.9754 166.115 79.0007 179 79Z" fill="black"/>
<path d="M199 199C212.261 199 224.979 204.268 234.355 213.645C243.732 223.021 249 235.739 249 249V259C249 264.304 246.893 269.391 243.142 273.142C239.391 276.893 234.304 279 229 279H129C123.696 279 118.609 276.893 114.858 273.142C111.107 269.391 109 264.304 109 259V249C109 235.739 114.268 223.021 123.645 213.645C133.021 204.268 145.739 199 159 199H199Z" fill="black"/>
<path d="M179 79C188.889 79 198.556 81.9324 206.779 87.4265C215.001 92.9206 221.41 100.73 225.194 109.866C228.978 119.002 229.969 129.055 228.039 138.755C226.11 148.454 221.348 157.363 214.355 164.355C207.363 171.348 198.454 176.11 188.755 178.039C179.055 179.969 169.002 178.978 159.866 175.194C150.73 171.41 142.921 165.001 137.427 156.779C131.932 148.556 129 138.889 129 129L129.05 126.83C129.609 113.958 135.116 101.798 144.422 92.8866C153.728 83.9754 166.115 79.0007 179 79Z" stroke="black"/>
<path d="M199 199C212.261 199 224.979 204.268 234.355 213.645C243.732 223.021 249 235.739 249 249V259C249 264.304 246.893 269.391 243.142 273.142C239.391 276.893 234.304 279 229 279H129C123.696 279 118.609 276.893 114.858 273.142C111.107 269.391 109 264.304 109 259V249C109 235.739 114.268 223.021 123.645 213.645C133.021 204.268 145.739 199 159 199H199Z" stroke="black"/>
</g>
</svg>
